HIERARCHY
ROOT Hips
{
	OFFSET 0.000000 0.000000 0.000000
	CHANNELS 6 Xposition Yposition Zposition Zrotation Yrotation Xrotation 
	JOINT LHipJoint
	{
		OFFSET 0.000000 0.000000 0.000000
		CHANNELS 3 Zrotation Yrotation Xrotation
		JOINT LeftUpLeg
		{
			OFFSET 1.363060 -1.794630 0.839290
			CHANNELS 3 Zrotation Yrotation Xrotation
			JOINT LeftLeg
			{
				OFFSET 2.448110 -6.726130 0.000000
				CHANNELS 3 Zrotation Yrotation Xrotation
				JOINT LeftFoot
				{
					OFFSET 2.562200 -7.039590 0.000000
					CHANNELS 3 Zrotation Yrotation Xrotation
					JOINT LeftToeBase
					{
						OFFSET 0.157640 -0.433110 2.322550
						CHANNELS 3 Zrotation Yrotation Xrotation
						End Site
						{
							OFFSET 0.000000 0.000000 0.000000
						}
					}
				}
			}
		}
	}
	JOINT RHipJoint
	{
		OFFSET 0.000000 0.000000 0.000000
		CHANNELS 3 Zrotation Yrotation Xrotation
		JOINT RightUpLeg
		{
			OFFSET -1.305520 -1.794630 0.839290
			CHANNELS 3 Zrotation Yrotation Xrotation
			JOINT RightLeg
			{
				OFFSET -2.542530 -6.985550 0.000000
				CHANNELS 3 Zrotation Yrotation Xrotation
				JOINT RightFoot
				{
					OFFSET -2.568260 -7.056230 0.000000
					CHANNELS 3 Zrotation Yrotation Xrotation
					JOINT RightToeBase
					{
						OFFSET -0.164730 -0.452590 2.363150
						CHANNELS 3 Zrotation Yrotation Xrotation
						End Site
						{
							OFFSET 0.000000 0.000000 0.000000
						}
					}
				}
			}
		}
	}
	JOINT LowerBack
	{
		OFFSET 0.000000 0.000000 0.000000
		CHANNELS 3 Zrotation Yrotation Xrotation
		JOINT Spine
		{
			OFFSET 0.028270 2.035590 -0.193380
			CHANNELS 3 Zrotation Yrotation Xrotation
			JOINT Spine1
			{
				OFFSET 0.056720 2.048850 -0.042750
				CHANNELS 3 Zrotation Yrotation Xrotation
				JOINT Neck
				{
					OFFSET 0.000000 0.000000 0.000000
					CHANNELS 3 Zrotation Yrotation Xrotation
					JOINT Neck1
					{
						OFFSET -0.054170 1.746240 0.172020
						CHANNELS 3 Zrotation Yrotation Xrotation
						JOINT Head
						{
							OFFSET 0.104070 1.761360 -0.123970
							CHANNELS 3 Zrotation Yrotation Xrotation
							End Site
							{
								OFFSET 0.000000 0.000000 0.000000
							}
						}
					}
				}
				JOINT LeftShoulder
				{
					OFFSET 0.000000 0.000000 0.000000
					CHANNELS 3 Zrotation Yrotation Xrotation
					JOINT LeftArm
					{
						OFFSET 3.362410 1.200890 -0.311210
						CHANNELS 3 Zrotation Yrotation Xrotation
						JOINT LeftForeArm
						{
							OFFSET 4.983000 -0.000000 -0.000000
							CHANNELS 3 Zrotation Yrotation Xrotation
							JOINT LeftHand
							{
								OFFSET 3.483560 -0.000000 -0.000000
								CHANNELS 3 Zrotation Yrotation Xrotation
								JOINT LeftFingerBase
								{
									OFFSET 0.000000 0.000000 0.000000
									CHANNELS 3 Zrotation Yrotation Xrotation
									JOINT LeftHandIndex1
									{
										OFFSET 0.715260 -0.000000 -0.000000
										CHANNELS 3 Zrotation Yrotation Xrotation
										End Site
										{
											OFFSET 0.000000 0.000000 0.000000
										}
									}
								}
								JOINT LThumb
								{
									OFFSET 0.000000 0.000000 0.000000
									CHANNELS 3 Zrotation Yrotation Xrotation
									End Site
									{
										OFFSET 0.000000 0.000000 0.000000
									}
								}
							}
						}
					}
				}
				JOINT RightShoulder
				{
					OFFSET 0.000000 0.000000 0.000000
					CHANNELS 3 Zrotation Yrotation Xrotation
					JOINT RightArm
					{
						OFFSET -3.136600 1.374050 -0.404650
						CHANNELS 3 Zrotation Yrotation Xrotation
						JOINT RightForeArm
						{
							OFFSET -5.241900 -0.000000 -0.000000
							CHANNELS 3 Zrotation Yrotation Xrotation
							JOINT RightHand
							{
								OFFSET -3.444170 -0.000000 -0.000000
								CHANNELS 3 Zrotation Yrotation Xrotation
								JOINT RightFingerBase
								{
									OFFSET 0.000000 0.000000 0.000000
									CHANNELS 3 Zrotation Yrotation Xrotation
									JOINT RightHandIndex1
									{
										OFFSET -0.622530 -0.000000 -0.000000
										CHANNELS 3 Zrotation Yrotation Xrotation
										End Site
										{
											OFFSET 0.000000 0.000000 0.000000
										}
									}
								}
								JOINT RThumb
								{
									OFFSET 0.000000 0.000000 0.000000
									CHANNELS 3 Zrotation Yrotation Xrotation
									End Site
									{
										OFFSET 0.000000 0.000000 0.000000
									}
								}
							}
						}
					}
				}
			}
		}
	}
}
MOTION
Frames: 9
Frame Time: 0.008333
21.235917 19.124603 -1.782852 -0.051564 -0.796206 8.755022 -16.333333 2.087418 3.795149 6.089986 -5.335014 -25.110146 -31.876182 -32.076913 61.728853 -30.855796 53.730561 -33.497761 -0.474108 -2.658261 -1.129512 12.530443 -1.977492 3.342140 -3.011322 -1.228879 -31.833063 44.307126 26.045438 72.827109 31.346919 -52.283056 -45.190477 0.194384 0.793514 -3.799946 3.270708 -0.560403 6.235077 0.867087 -0.510506 -4.086796 -0.444347 -0.563234 -2.088890 -2.492957 -0.114897 -5.059349 7.563363 -3.879554 34.902807 -2.425127 -0.119602 -0.533153 -8.076079 -4.663328 0.136398 -70.055255 -7.109230 38.654138 6.022975 -7.275507 -11.124936 4.221474 -7.714303 -10.910270 -1.177579 2.482490 -0.000000 0.000000 0.000000 0.000000 0.000000 0.000000 0.000000 10.127565 4.155308 2.830292 65.591171 2.764434 32.247150 -3.036184 10.031513 -1.205696 -7.683477 7.113373 -1.719907 3.004389 -1.859921 -0.000000 0.000000 0.000000 0.000000 0.000000 0.000000 0.000000
21.235830 19.357689 -1.738425 -0.107219 -0.331164 8.788889 -16.462635 2.264801 3.818124 6.485789 -5.644563 -24.383627 -28.181934 -31.804319 56.967704 -29.020396 52.967505 -26.357665 -0.680018 -2.464810 -2.882620 12.715671 -2.122456 3.400290 -3.501044 -0.378978 -30.541167 39.797662 26.618041 68.004727 32.058062 -50.472032 -39.598592 0.211053 0.903337 -4.815764 3.378275 -0.644165 5.912372 0.878047 -0.616835 -4.096140 -0.463136 -0.666320 -2.186016 -2.457214 -0.094585 -4.985507 7.622848 -4.088653 35.061747 -2.514467 -0.280256 -0.616456 -7.832612 -4.507897 0.148586 -70.246875 -6.736345 38.985380 5.853510 -7.082160 -10.831544 4.128412 -8.006941 -10.680219 -1.147804 2.606283 -0.000000 0.000000 0.000000 0.000000 0.000000 0.000000 0.000000 9.825281 3.895797 2.626373 65.760587 1.904810 31.588062 -3.035801 10.895676 -1.096168 -7.678658 7.192432 -1.556398 3.014521 -1.820515 -0.000000 0.000000 0.000000 0.000000 0.000000 0.000000 0.000000
21.235899 19.592698 -1.695470 -0.170609 0.051161 8.802395 -16.618467 2.615420 3.769039 6.603034 -5.326495 -23.922997 -22.673360 -30.066328 50.745390 -26.418476 50.272347 -17.920515 -0.847375 -2.444909 -4.186260 12.937833 -2.370155 3.501279 -4.158659 0.782863 -29.252192 34.394931 26.335674 61.989161 30.863587 -48.639849 -31.997539 0.000366 0.068442 -4.783203 3.468557 -0.695307 5.655875 0.886123 -0.687789 -4.101983 -0.466969 -0.737995 -2.172893 -2.424117 -0.048897 -5.024511 7.671690 -4.275651 35.313232 -2.615046 -0.426830 -1.083192 -7.717138 -4.270948 0.190170 -70.207073 -6.422541 38.806224 5.634267 -7.330576 -10.320708 4.171536 -7.887639 -10.161060 -1.218637 2.537259 -0.000000 0.000000 0.000000 0.000000 0.000000 0.000000 0.000000 9.670720 3.554457 2.592844 65.795255 1.270730 31.596292 -3.259910 11.646100 -1.628546 -7.563045 7.278706 -1.968319 2.967638 -1.815512 -0.000000 0.000000 0.000000 0.000000 0.000000 0.000000 0.000000
21.235506 19.827947 -1.660772 -0.123406 0.270476 8.826730 -16.712615 2.813963 3.766181 6.805887 -5.166559 -23.596666 -20.314329 -29.239300 46.915786 -24.061296 50.404130 -11.195470 -0.940603 -2.363493 -4.956059 13.125712 -2.625056 3.482866 -4.762804 1.615667 -28.117382 28.461470 25.090305 55.489025 29.634064 -46.476120 -23.279384 -0.019675 -0.004212 -5.266820 3.463913 -0.714046 5.452632 0.887432 -0.717678 -4.105554 -0.565987 -0.770114 -2.181167 -2.370473 -0.049354 -5.029442 7.635766 -4.405211 35.546901 -2.428567 -0.575205 -1.367380 -7.657870 -4.053753 0.265791 -70.058154 -6.142012 38.713069 5.460407 -7.612742 -9.981674 4.208711 -7.856898 -9.814607 -1.275870 2.500620 -0.000000 0.000000 0.000000 0.000000 0.000000 0.000000 0.000000 9.456905 3.316671 2.481159 65.914650 0.671865 31.109524 -3.178832 12.413673 -1.528694 -7.770136 7.414799 -1.868434 3.063737 -1.799907 -0.000000 0.000000 0.000000 0.000000 0.000000 0.000000 0.000000
21.233159 20.058471 -1.634032 -0.087930 0.563212 8.867628 -16.837631 3.130749 3.551615 6.528069 -3.974643 -23.752783 -15.942403 -26.785086 41.750761 -21.862197 48.085282 -2.261295 -1.201125 -2.179900 -7.046866 13.293132 -2.835814 3.557663 -5.316175 2.264696 -27.255021 24.372626 23.977164 50.482543 28.434913 -45.299698 -16.404227 -0.152124 -0.537526 -5.261492 3.453418 -0.745598 5.276290 0.889447 -0.757907 -4.107801 -0.663050 -0.810944 -2.189066 -2.328200 -0.038905 -5.020747 7.667331 -4.409397 35.798355 -2.208075 -0.574227 -1.623516 -7.544615 -3.996240 0.338923 -69.953419 -5.864422 38.333158 5.233752 -7.934021 -9.590379 4.244966 -8.018209 -9.441955 -1.334130 2.535111 -0.000000 0.000000 0.000000 0.000000 0.000000 0.000000 0.000000 9.200991 3.217495 2.378709 66.130799 0.035472 31.061196 -3.311572 13.059043 -1.735987 -7.909051 7.394785 -1.993089 3.114679 -1.743856 -0.000000 0.000000 0.000000 0.000000 0.000000 0.000000 0.000000
21.227173 20.279511 -1.615339 -0.072719 0.948948 8.957316 -16.947333 3.441608 3.196163 5.908346 -2.019655 -24.202184 -12.013475 -24.544298 37.263504 -19.841398 45.884681 7.001555 -1.355285 -2.548779 -8.067385 13.363317 -2.831237 3.777264 -5.914946 2.872609 -26.671877 24.093348 24.758248 48.967923 29.810560 -46.009411 -15.438362 -0.100702 -0.332227 -4.235255 3.458118 -0.796903 5.131711 0.893363 -0.814934 -4.108397 -0.760499 -0.871031 -2.133378 -2.255976 -0.009620 -5.077808 7.822238 -4.336232 36.096542 -2.282315 -0.417971 -2.136197 -7.535806 -3.957967 0.462228 -69.704484 -5.681425 38.059218 5.081890 -8.222959 -9.379009 4.115590 -7.547012 -9.149237 -1.332568 2.323350 -0.000000 0.000000 0.000000 0.000000 0.000000 0.000000 0.000000 9.019723 3.099547 2.343610 66.385692 -0.423422 31.527577 -3.616802 13.674915 -2.150389 -7.913226 7.409222 -2.258024 3.110339 -1.710066 -0.000000 0.000000 0.000000 0.000000 0.000000 0.000000 0.000000
21.224823 20.488245 -1.602772 0.009712 1.188357 9.183496 -16.948224 3.440321 2.909979 5.402864 -0.533933 -24.869521 -11.910454 -25.521996 36.637665 -19.458985 47.256669 11.838004 -1.367530 -2.680432 -8.107569 13.294154 -2.618375 3.994112 -6.295852 3.132424 -26.574445 26.150376 26.616220 50.248209 31.513990 -47.311741 -18.758475 -0.070650 -0.215864 -4.208609 3.478108 -0.834577 4.980834 0.896285 -0.858652 -4.114183 -0.855209 -0.914994 -2.134010 -2.294110 -0.070358 -5.060098 7.666451 -4.134254 36.029665 -1.821318 -0.325964 -1.805304 -7.340874 -3.970431 0.351145 -69.826287 -5.335610 38.152865 5.165356 -8.733641 -9.373889 4.129684 -8.083690 -9.130125 -1.342527 2.491460 -0.000000 0.000000 0.000000 0.000000 0.000000 0.000000 0.000000 8.764670 3.132984 2.428027 66.588267 -0.776861 31.599346 -3.735844 14.393856 -2.540945 -7.811523 7.234617 -2.481515 3.067402 -1.605953 -0.000000 0.000000 0.000000 0.000000 0.000000 0.000000 0.000000
21.221923 20.678484 -1.586413 0.107218 1.421357 9.471128 -16.857416 3.363593 2.632170 5.015515 0.570138 -25.634969 -11.281240 -25.113102 35.707242 -19.489190 47.458396 15.597764 -0.972123 -2.663898 -5.012210 13.216357 -2.386201 4.205700 -6.604914 3.363231 -26.690489 28.873410 28.326570 52.362990 32.414373 -49.432327 -23.003239 -0.019502 -0.008286 -4.920217 3.391847 -0.835960 4.947828 0.893484 -0.854679 -4.116635 -0.923079 -0.911642 -2.239189 -2.344090 -0.096058 -4.954175 7.492795 -3.979813 36.225637 -0.806676 -0.345402 -3.022450 -7.133140 -3.888985 0.235295 -69.861267 -4.964368 38.160764 5.239881 -9.506255 -9.256246 4.199489 -8.144078 -8.918708 -1.393721 2.453140 -0.000000 0.000000 0.000000 0.000000 0.000000 0.000000 0.000000 8.538118 3.081500 2.313138 66.760859 -1.308362 31.783446 -3.626680 15.019570 -2.160992 -7.563151 7.414532 -2.046540 2.992317 -1.627894 -0.000000 0.000000 0.000000 0.000000 0.000000 0.000000 0.000000
21.220224 20.847891 -1.584955 0.208385 1.453104 9.760453 -16.726163 3.138019 2.376920 4.458858 1.697074 -26.586641 -12.664512 -26.914695 37.421747 -19.887995 49.294980 16.326829 -0.816544 -2.012711 -4.239039 13.095370 -2.176335 4.211879 -6.882149 3.391313 -26.875334 28.972306 27.998660 52.279404 34.246856 -48.847090 -25.990110 0.198933 0.896863 -5.704056 3.331171 -0.804928 5.042585 0.888223 -0.817942 -4.116878 -1.000957 -0.880263 -2.184515 -2.356103 -0.100464 -4.999965 7.580582 -3.678562 35.952589 -0.616471 -0.062216 -2.724572 -7.087946 -3.808901 0.206867 -69.939379 -5.074251 38.525012 5.449245 -9.655554 -9.403171 4.205117 -8.365109 -9.034794 -1.377006 2.526951 -0.000000 0.000000 0.000000 0.000000 0.000000 0.000000 0.000000 8.428018 3.039691 2.411841 66.773906 -1.282892 32.348279 -3.724763 15.720148 -2.346790 -7.728055 7.308833 -2.123817 3.049561 -1.538841 -0.000000 0.000000 0.000000 0.000000 0.000000 0.000000 0.000000
